<?xml version="1.0" encoding="UTF-8" standalone="no"?>
<!DOCTYPE svg PUBLIC "-//W3C//DTD SVG 1.1//EN" "http://www.w3.org/Graphics/SVG/1.1/DTD/svg11.dtd">
<svg width="100%" height="100%" viewBox="0 0 1024 1024" version="1.1" xmlns="http://www.w3.org/2000/svg" xmlns:xlink="http://www.w3.org/1999/xlink" xml:space="preserve" xmlns:serif="http://www.serif.com/" style="fill-rule:evenodd;clip-rule:evenodd;stroke-linejoin:round;stroke-miterlimit:2;">
    <g transform="matrix(1.44538,0,0,1.44538,-479.529,-17.0084)">
        <path d="M623.733,128L623.733,172.279L519.509,172.279C504.481,172.279 492.279,184.481 492.279,199.509L492.279,298.198L448,298.198L448,196.227C448,158.572 478.572,128 516.227,128L623.733,128ZM924,298.198L879.721,298.198L879.721,199.509C879.721,184.481 867.519,172.279 852.491,172.279L748.267,172.279L748.267,128L855.773,128C893.428,128 924,158.572 924,196.227L924,298.198ZM748.267,604L748.267,559.731L852.491,559.731C867.519,559.731 879.721,547.529 879.721,532.5L879.721,422.733L924,422.733L924,535.773C924,573.428 893.428,604 855.773,604L748.267,604ZM448,422.733L492.279,422.733L492.279,532.5C492.279,547.529 504.481,559.731 519.509,559.731L623.733,559.731L623.733,604L516.227,604C478.572,604 448,573.428 448,535.773L448,422.733Z"/>
    </g>
</svg>
