<?xml version="1.0" encoding="UTF-8" standalone="no"?>
<!DOCTYPE svg PUBLIC "-//W3C//DTD SVG 1.1//EN" "http://www.w3.org/Graphics/SVG/1.1/DTD/svg11.dtd">
<svg width="100%" height="100%" viewBox="0 0 1024 1024" version="1.1" xmlns="http://www.w3.org/2000/svg" xmlns:xlink="http://www.w3.org/1999/xlink" xml:space="preserve" xmlns:serif="http://www.serif.com/" style="fill-rule:evenodd;clip-rule:evenodd;stroke-linejoin:round;stroke-miterlimit:2;">
    <g transform="matrix(1.18182,0,0,1,-93.0909,-96)">
        <path d="M864,412.755L864,803.245C864,836.776 840.965,864 812.592,864L211.408,864C183.035,864 160,836.776 160,803.245L160,412.755C160,379.224 183.035,352 211.408,352L812.592,352C840.965,352 864,379.224 864,412.755ZM302.154,752L356.308,752L356.308,640L440.923,640L440.923,752L495.077,752L495.077,464L440.923,464L440.923,576L356.308,576L356.308,464L302.154,464L302.154,752ZM545.846,752L627.077,752C694.326,752 748.923,687.476 748.923,608C748.923,528.524 694.326,464 627.077,464L545.846,464L545.846,752ZM600,528L627.077,528C664.437,528 694.769,563.847 694.769,608C694.769,652.153 664.437,688 627.077,688L600,688L600,528Z"/>
    </g>
</svg>
