<?xml version="1.0" encoding="UTF-8" standalone="no"?>
<!DOCTYPE svg PUBLIC "-//W3C//DTD SVG 1.1//EN" "http://www.w3.org/Graphics/SVG/1.1/DTD/svg11.dtd">
<svg width="100%" height="100%" viewBox="0 0 1024 1024" version="1.1" xmlns="http://www.w3.org/2000/svg" xmlns:xlink="http://www.w3.org/1999/xlink" xml:space="preserve" xmlns:serif="http://www.serif.com/" style="fill-rule:evenodd;clip-rule:evenodd;stroke-linejoin:round;stroke-miterlimit:2;">
    <g transform="matrix(1.44538,0,0,1.44538,-479.529,-17.0084)">
        <path d="M647.256,128L647.256,172.279L519.509,172.279C504.481,172.279 492.279,184.481 492.279,199.509L492.279,532.5C492.279,547.529 504.481,559.731 519.509,559.731L852.491,559.731C867.519,559.731 879.721,547.529 879.721,532.5L879.721,401.977L924,401.977L924,535.773C924,573.428 893.428,604 855.773,604L516.227,604C478.572,604 448,573.428 448,535.773L448,196.227C448,158.572 478.572,128 516.227,128L647.256,128ZM805.054,294.003L666.546,432.51C653.586,445.471 632.542,445.471 619.581,432.51C606.621,419.55 606.621,398.506 619.581,385.545L758.089,247.037L695.737,184.685C689.233,178.181 685.993,169.642 686.017,161.11L686.017,160.577C686.008,142.395 700.761,127.626 718.943,127.617L890.893,127.529C900.027,127.524 908.3,131.246 914.273,137.256C919.161,142.113 922.535,148.491 923.622,155.617C924.075,158.289 924.2,161.005 923.998,163.702L923.913,329.42C924.911,339.032 921.73,348.996 914.372,356.355C906.829,363.897 896.55,367.05 886.718,365.814C877.859,364.817 870.06,360.301 864.751,353.699L805.054,294.003Z"/>
    </g>
</svg>
