<?xml version="1.0" encoding="UTF-8" standalone="no"?>
<!DOCTYPE svg PUBLIC "-//W3C//DTD SVG 1.1//EN" "http://www.w3.org/Graphics/SVG/1.1/DTD/svg11.dtd">
<svg width="100%" height="100%" viewBox="0 0 1024 1024" version="1.1" xmlns="http://www.w3.org/2000/svg" xmlns:xlink="http://www.w3.org/1999/xlink" xml:space="preserve" xmlns:serif="http://www.serif.com/" style="fill-rule:evenodd;clip-rule:evenodd;stroke-linejoin:round;stroke-miterlimit:2;">
    <g transform="matrix(1.2381,0,0,1.2381,16.7619,16.7619)">
        <path d="M179.265,653.243C108.649,591.628 64,500.987 64,400C64,214.557 214.557,64 400,64C585.443,64 736,214.557 736,400C736,500.987 691.351,591.628 620.735,653.243C561.677,704.772 484.456,736 400,736C315.544,736 238.323,704.772 179.265,653.243ZM570.885,593.846C615.433,554.538 646.347,500.129 655.584,438.664C635.528,437.189 619.692,420.429 619.692,400C619.692,379.571 635.528,362.811 655.584,361.336C649.205,318.887 632.487,279.804 608.079,246.736C601.083,253.606 591.494,257.846 580.923,257.846C559.526,257.846 542.154,240.474 542.154,219.077C542.154,208.506 546.394,198.917 553.264,191.921C520.196,167.513 481.113,150.795 438.664,144.416C437.189,164.472 420.429,180.308 400,180.308C379.571,180.308 362.811,164.472 361.336,144.416C318.887,150.795 279.804,167.513 246.736,191.921C253.606,198.917 257.846,208.506 257.846,219.077C257.846,240.474 240.474,257.846 219.077,257.846C208.506,257.846 198.917,253.606 191.921,246.736C167.513,279.804 150.795,318.887 144.416,361.336C164.472,362.811 180.308,379.571 180.308,400C180.308,420.429 164.472,437.189 144.416,438.664C153.653,500.129 184.567,554.538 229.115,593.846C273.758,554.454 332.094,530.227 396.025,529.261L487.13,315.774C495.462,296.251 518.075,287.165 537.598,295.497L538.169,295.741C557.692,304.072 566.778,326.685 558.447,346.208L475.548,540.465C511.209,551.364 543.604,569.773 570.885,593.846Z"/>
    </g>
</svg>
