<?xml version="1.0" encoding="UTF-8" standalone="no"?>
<!DOCTYPE svg PUBLIC "-//W3C//DTD SVG 1.1//EN" "http://www.w3.org/Graphics/SVG/1.1/DTD/svg11.dtd">
<svg width="100%" height="100%" viewBox="0 0 1024 1024" version="1.1" xmlns="http://www.w3.org/2000/svg" xmlns:xlink="http://www.w3.org/1999/xlink" xml:space="preserve" xmlns:serif="http://www.serif.com/" style="fill-rule:evenodd;clip-rule:evenodd;stroke-linejoin:round;stroke-miterlimit:2;">
    <g transform="matrix(1.2381,0,0,1.2381,16.7619,16.7619)">
        <path d="M378.182,735.302C202.891,724.044 64,578.114 64,400C64,214.557 214.557,64 400,64C585.443,64 736,214.557 736,400C736,407.836 735.731,415.611 735.202,423.314C733.374,449.93 728.441,475.697 720.763,500.257C718.312,500.188 715.852,500.154 713.385,500.154C685.114,500.154 657.897,504.703 632.427,513.108C565.915,535.056 511.315,583.301 480.958,645.508C468.078,671.901 459.563,700.808 456.354,731.286C438.029,734.386 419.201,736 400,736C392.671,736 385.396,735.765 378.182,735.302ZM510.689,490.695C552.829,458.752 602.723,436.516 657.031,427.329C657.977,418.348 658.462,409.23 658.462,400C658.462,257.351 542.649,141.538 400,141.538C257.351,141.538 141.538,257.351 141.538,400C141.538,540.181 253.379,654.447 392.622,658.358C413.27,592.315 453.772,535.006 507.124,493.434C508.257,492.455 509.447,491.54 510.689,490.695ZM400,180.308C421.397,180.308 438.769,197.68 438.769,219.077C438.769,240.474 421.397,257.846 400,257.846C378.603,257.846 361.231,240.474 361.231,219.077C361.231,197.68 378.603,180.308 400,180.308ZM219.077,361.231C240.474,361.231 257.846,378.603 257.846,400C257.846,421.397 240.474,438.769 219.077,438.769C197.68,438.769 180.308,421.397 180.308,400C180.308,378.603 197.68,361.231 219.077,361.231ZM267.538,484C288.936,484 306.308,501.372 306.308,522.769C306.308,544.167 288.936,561.538 267.538,561.538C246.141,561.538 228.769,544.167 228.769,522.769C228.769,501.372 246.141,484 267.538,484ZM474.308,341.846C506.404,341.846 532.462,367.904 532.462,400C532.462,432.096 506.404,458.154 474.308,458.154C442.212,458.154 416.154,432.096 416.154,400C416.154,367.904 442.212,341.846 474.308,341.846ZM580.923,361.231C602.32,361.231 619.692,378.603 619.692,400C619.692,421.397 602.32,438.769 580.923,438.769C559.526,438.769 542.154,421.397 542.154,400C542.154,378.603 559.526,361.231 580.923,361.231ZM267.538,238.462C288.936,238.462 306.308,255.833 306.308,277.231C306.308,298.628 288.936,316 267.538,316C246.141,316 228.769,298.628 228.769,277.231C228.769,255.833 246.141,238.462 267.538,238.462ZM532.462,238.462C553.859,238.462 571.231,255.833 571.231,277.231C571.231,298.628 553.859,316 532.462,316C511.064,316 493.692,298.628 493.692,277.231C493.692,255.833 511.064,238.462 532.462,238.462Z"/>
    </g>
</svg>
