<?xml version="1.0" encoding="UTF-8" standalone="no"?>
<!DOCTYPE svg PUBLIC "-//W3C//DTD SVG 1.1//EN" "http://www.w3.org/Graphics/SVG/1.1/DTD/svg11.dtd">
<svg width="100%" height="100%" viewBox="0 0 1024 1024" version="1.1" xmlns="http://www.w3.org/2000/svg" xmlns:xlink="http://www.w3.org/1999/xlink" xml:space="preserve" xmlns:serif="http://www.serif.com/" style="fill-rule:evenodd;clip-rule:evenodd;stroke-linejoin:round;stroke-miterlimit:2;">
    <g transform="matrix(6.12323e-17,1,-1.09091,6.67989e-17,1005.09,72)">
        <path d="M188,628L188,657.333L92,657.333L92,246.667L188,246.667L188,276L296,276C310.54,276 323.578,281.939 332.384,291.312L440.009,389.852L547.197,291.765C556.005,282.131 569.227,276 584,276L692,276L692,246.667L788,246.667L788,657.333L692,657.333L692,628L584,628C569.73,628 556.906,622.279 548.11,613.206L439.991,514.213L332.407,612.663C323.601,622.051 310.552,628 296,628L188,628ZM188,364L188,540L275.931,540L372.069,452.024L275.928,364L188,364ZM604.141,364L507.931,452.041L604,540L692,540L692,364L604.141,364Z"/>
    </g>
</svg>
